<svg id="Capa_1" enable-background="new 0 0 512.131 512.131" height="512" viewBox="0 0 512.131 512.131" width="512" xmlns="http://www.w3.org/2000/svg"><g><g><path d="m325.797 354.455h-298.555c-10.903 0-19.742-8.839-19.742-19.742v-40.191h318.297z" fill="#5986cb"/><path d="m286.65 294.522h39.147v59.933h-39.147z" fill="#4278c3"/></g><path d="m497.156 354.455h-191.359v-184.447c0-5.278 4.278-9.556 9.556-9.556h133.482c3.495 0 6.712 1.908 8.387 4.976l43.608 79.845c2.408 4.409 3.67 9.352 3.67 14.375v87.463c0 4.056-3.288 7.344-7.344 7.344z" fill="#95d6a4"/><path d="m500.831 245.273-43.608-79.845c-1.675-3.068-4.892-4.976-8.387-4.976h-19.615c3.495 0 6.711 1.908 8.387 4.976l43.608 79.845c2.408 4.409 3.67 9.352 3.67 14.375v87.463c0 4.056-3.288 7.344-7.344 7.344h19.615c4.056 0 7.344-3.288 7.344-7.344v-87.463c-.001-5.023-1.262-9.966-3.67-14.375z" fill="#78c2a4"/><g><circle cx="407.577" cy="374.353" fill="#26457d" r="56.344"/><path d="m407.577 318.008c-3.191 0-6.315.279-9.362.789 26.66 4.461 46.983 27.628 46.983 55.556s-20.323 51.095-46.983 55.556c3.046.51 6.171.789 9.362.789 31.118 0 56.344-25.226 56.344-56.344s-25.226-56.346-56.344-56.346z" fill="#21386b"/><circle cx="407.577" cy="374.353" fill="#f9f6f6" r="18.723"/><path d="m407.577 355.63c-2.726 0-5.308.596-7.644 1.643 6.526 2.926 11.079 9.465 11.079 17.08s-4.553 14.155-11.079 17.08c2.336 1.047 4.918 1.643 7.644 1.643 10.34 0 18.723-8.383 18.723-18.723s-8.383-18.723-18.723-18.723z" fill="#dddaec"/></g><circle cx="120.167" cy="374.353" fill="#26457d" r="56.344"/><path d="m120.167 318.008c-3.191 0-6.315.279-9.362.789 26.66 4.461 46.983 27.628 46.983 55.556s-20.323 51.095-46.983 55.556c3.046.51 6.171.789 9.362.789 31.118 0 56.344-25.226 56.344-56.344s-25.226-56.346-56.344-56.346z" fill="#21386b"/><circle cx="120.167" cy="374.353" fill="#f9f6f6" r="18.723"/><path d="m120.167 355.63c-2.726 0-5.308.596-7.644 1.643 6.526 2.926 11.079 9.465 11.079 17.08s-4.553 14.155-11.079 17.08c2.336 1.047 4.918 1.643 7.644 1.643 10.34 0 18.723-8.383 18.723-18.723s-8.382-18.723-18.723-18.723z" fill="#dddaec"/><path d="m305.948 380.439h-65.884c-7.152 0-12.951-5.798-12.951-12.951v-13.033h91.785v13.033c.001 7.152-5.798 12.951-12.95 12.951z" fill="#26457d"/><path d="m301.893 354.455v13.033c0 7.152-5.798 12.951-12.951 12.951h17.006c7.152 0 12.951-5.798 12.951-12.951v-13.033z" fill="#21386b"/><path d="m504.5 324.489h-14.603c-6.413 0-11.611-5.199-11.611-11.611 0-6.413 5.199-11.611 11.611-11.611h14.603z" fill="#da4a54"/><g><path d="m457.223 165.428c-1.675-3.067-4.892-4.976-8.387-4.976h-69.982v98.828c0 5.375 4.357 9.732 9.732 9.732h115.914v-9.364c0-5.023-1.262-9.966-3.67-14.375z" fill="#e4f6ff"/></g><path d="m500.831 245.273-43.608-79.846c-1.675-3.068-4.892-4.976-8.387-4.976h-19.615c3.495 0 6.711 1.908 8.387 4.976l43.608 79.845c2.408 4.409 3.67 9.352 3.67 14.375v9.364h19.614v-9.364c0-5.022-1.261-9.965-3.669-14.374z" fill="#d3effb"/><path d="m410.27 220.544c-.646-14.188-12.336-25.358-26.538-25.358h-4.878v64.094c0 5.375 4.357 9.732 9.732 9.732h23.888z" fill="#26457d"/><path d="m280.727 294.522h-248.156v-19.32c0-3.798 3.079-6.877 6.877-6.877h234.401c3.798 0 6.877 3.079 6.877 6.877v19.32z" fill="#26457d"/><path d="m273.849 268.325h-17.759c3.798 0 6.877 3.079 6.877 6.877v19.32h17.759v-19.32c.001-3.798-3.078-6.877-6.877-6.877z" fill="#21386b"/><path d="m258.825 268.325h-204.353v-127.084c0-6.973 5.653-12.626 12.626-12.626h179.1c6.973 0 12.626 5.653 12.626 12.626v127.084z" fill="#f9f6f6"/><path d="m246.199 128.615h-18.383c6.973 0 12.626 5.653 12.626 12.626v127.084h18.383v-127.084c0-6.973-5.653-12.626-12.626-12.626z" fill="#dddaec"/><g><path d="m186.373 200.499c8.768-8.768 8.769-22.985 0-31.753-8.768-8.768-22.985-8.768-31.753 0l-11.006 11.006 31.753 31.753z" fill="#95d6a4"/><path d="m186.373 168.746c-1.724-1.724-3.661-3.104-5.724-4.15 4.274 8.427 2.894 18.986-4.15 26.03l-11.006 11.006 9.874 9.874 11.006-11.006c8.768-8.769 8.768-22.986 0-31.754z" fill="#78c2a4"/><path d="m143.613 179.752-16.688 16.688c-8.769 8.769-8.769 22.985 0 31.753s22.985 8.769 31.753 0l16.688-16.688z" fill="#ffd064"/><path d="m165.493 201.631-16.688 16.688c-7.044 7.044-17.603 8.424-26.03 4.15 1.046 2.063 2.426 4 4.15 5.724 8.768 8.768 22.985 8.769 31.753 0l16.688-16.688z" fill="#ffc250"/></g><g><path d="m407.576 348.13c-14.459 0-26.223 11.764-26.223 26.223 0 14.46 11.764 26.224 26.223 26.224 14.46 0 26.224-11.764 26.224-26.224 0-14.459-11.764-26.223-26.224-26.223zm0 37.446c-6.188 0-11.223-5.035-11.223-11.224s5.034-11.223 11.223-11.223 11.224 5.034 11.224 11.223-5.035 11.224-11.224 11.224z"/><path d="m93.944 374.353c0 14.46 11.764 26.224 26.223 26.224 14.46 0 26.224-11.764 26.224-26.224 0-14.459-11.764-26.223-26.224-26.223-14.459 0-26.223 11.764-26.223 26.223zm37.447 0c0 6.188-5.035 11.224-11.224 11.224s-11.223-5.035-11.223-11.224 5.034-11.223 11.223-11.223 11.224 5.034 11.224 11.223z"/><path d="m507.413 241.678-43.607-79.844c-2.991-5.479-8.728-8.882-14.97-8.882h-133.482c-9.404 0-17.056 7.651-17.056 17.056v42.099c0 4.143 3.357 7.5 7.5 7.5s7.5-3.357 7.5-7.5v-42.099c0-1.134.922-2.056 2.056-2.056h56.001v91.328c0 9.502 7.73 17.232 17.232 17.232h108.413v17.253h-7.103c-10.538 0-19.111 8.573-19.111 19.111s8.573 19.111 19.111 19.111h7.103v14.967h-31.768c-10.273-21.531-32.253-36.447-57.656-36.447-25.402 0-47.382 14.916-57.655 36.447h-36.623v-104.86c0-4.143-3.357-7.5-7.5-7.5s-7.5 3.357-7.5 7.5v44.929h-10.071v-11.82c0-7.928-6.449-14.378-14.377-14.378h-7.524v-119.585c0-11.098-9.028-20.126-20.126-20.126h-28.04v-16.083c0-17.147-13.95-31.098-31.098-31.098h-60.825c-17.147 0-31.098 13.95-31.098 31.098v16.083h-28.04c-11.098 0-20.126 9.028-20.126 20.126v30.604c0 4.143 3.357 7.5 7.5 7.5s7.5-3.357 7.5-7.5v-30.604c0-2.826 2.3-5.126 5.126-5.126h179.101c2.826 0 5.126 2.3 5.126 5.126v119.584h-189.353v-58.994c0-4.143-3.357-7.5-7.5-7.5s-7.5 3.357-7.5 7.5v58.994h-7.524c-7.928 0-14.377 6.45-14.377 14.378v11.82h-17.572c-4.143 0-7.5 3.357-7.5 7.5v40.191c0 15.021 12.221 27.241 27.242 27.241h7.458v8.005h-27.2c-4.143 0-7.5 3.357-7.5 7.5s3.357 7.5 7.5 7.5h34.7c4.143 0 7.5-3.357 7.5-7.5v-15.505h7.84c-.793 4.013-1.218 8.156-1.218 12.397 0 35.204 28.641 63.845 63.845 63.845 12.096 0 23.884-3.414 34.091-9.873 3.5-2.215 4.542-6.849 2.327-10.349-2.216-3.501-6.85-4.541-10.349-2.327-7.804 4.938-16.818 7.549-26.069 7.549-26.933 0-48.845-21.912-48.845-48.845s21.912-48.845 48.845-48.845 48.845 21.912 48.845 48.845c0 7.737-1.769 15.15-5.257 22.034-1.872 3.694-.395 8.208 3.301 10.08 3.694 1.873 8.206.396 10.08-3.301 4.562-9.004 6.876-18.698 6.876-28.813 0-4.242-.425-8.385-1.218-12.397h36.82v5.533c0 11.276 9.175 20.45 20.451 20.45h65.884c11.276 0 20.45-9.174 20.45-20.45v-5.533h18.552c-.793 4.013-1.218 8.156-1.218 12.397 0 35.204 28.641 63.845 63.844 63.845 35.204 0 63.845-28.641 63.845-63.845 0-4.242-.425-8.385-1.218-12.397h26.954c8.185 0 14.844-6.659 14.844-14.844-.231-94.731 1.792-93.746-4.589-105.432zm-397.274-120.564v-16.083c0-8.876 7.222-16.098 16.098-16.098h60.825c8.876 0 16.098 7.222 16.098 16.098v16.083zm-70.068 154.71h233.155v11.198h-233.155zm80.096 34.684c-25.403 0-47.383 14.916-57.656 36.447h-35.269c-6.75 0-12.242-5.491-12.242-12.241v-32.691h283.298v44.933h-120.475c-10.273-21.532-32.253-36.448-57.656-36.448zm191.231 56.98c0 3.005-2.445 5.45-5.45 5.45h-65.884c-3.006 0-5.451-2.445-5.451-5.45v-5.533h76.785zm96.178 55.709c-26.933 0-48.844-21.912-48.844-48.845s21.911-48.845 48.844-48.845 48.845 21.912 48.845 48.845-21.912 48.845-48.845 48.845zm41.26-255.245c.753 0 1.442.409 1.804 1.069 0 .001.001.001.001.001 41.797 78.462 46.359 80.078 46.359 90.626v1.864h-3.671l-25.701-25.7 3.408-3.408c2.929-2.93 2.929-7.678 0-10.607-2.93-2.928-7.678-2.928-10.607 0l-17.424 17.424c-2.929 2.93-2.929 7.678 0 10.607 2.931 2.929 7.678 2.928 10.607 0l3.408-3.408 15.094 15.093h-52.473l-1.879-41.31c-.789-17.352-14.366-31.116-31.407-32.408v-19.843zm-62.482 91.328v-56.395c8.987 1.234 15.999 8.685 16.423 17.999l1.848 40.628h-16.039c-1.23.001-2.232-1.001-2.232-2.232zm103.543 57.708c-2.267 0-4.111-1.845-4.111-4.111s1.845-4.111 4.111-4.111h7.103v8.223h-7.103z"/><path d="m348.327 234.944v-26.059c0-4.143-3.357-7.5-7.5-7.5s-7.5 3.357-7.5 7.5v26.059c0 4.143 3.357 7.5 7.5 7.5s7.5-3.357 7.5-7.5z"/><path d="m163.982 233.497 27.694-27.694c11.679-11.68 11.679-30.682-.001-42.361-11.678-11.679-30.681-11.676-42.36.001l-27.694 27.694c-11.678 11.679-11.678 30.682 0 42.36 11.676 11.676 30.679 11.678 42.361 0zm17.087-59.448c5.831 5.83 5.831 15.316 0 21.146l-5.702 5.703-21.148-21.146 5.703-5.702c5.829-5.831 15.317-5.833 21.147-.001zm-48.84 48.841c-5.83-5.83-5.83-15.315 0-21.146l11.384-11.385 21.148 21.146-11.385 11.385c-5.831 5.833-15.318 5.831-21.147 0z"/></g></g></svg>