<svg id="color" enable-background="new 0 0 24 24" height="512" viewBox="0 0 24 24" width="512" xmlns="http://www.w3.org/2000/svg"><path d="m15.5 10h-5.05c-1.41 2.36-3.33 4.05-3.66 4.34-.5.42-1.13.66-1.79.66s-1.29-.24-1.79-.66c-.19-.16-.89-.78-1.71-1.71v8.62c0 .41.34.75.75.75h14v-11.25c0-.41-.34-.75-.75-.75z" fill="#eceff1"/><path d="m10.463 10h-.013c-1.41 2.36-3.33 4.05-3.66 4.34-.5.42-1.13.66-1.79.66s-1.29-.24-1.79-.66c-.19-.16-.89-.78-1.71-1.71v8.62c0 .41.34.75.75.75h8.213z" fill="#cdd0d2"/><path d="m19.25 13.55h-3c-.41 0-.75.34-.75.75v6.95c0 .41.34.75.75.75h7c.41 0 .75-.34.75-.75v-2.95c0-2.62-2.13-4.75-4.75-4.75z" fill="#90a4ae"/><path d="m19.25 13.55h-3c-.414 0-.75.336-.75.75v6.95c0 .414.336.75.75.75h3.25v-8.444c-.083-.004-.166-.006-.25-.006z" fill="#7d8f97"/><path d="m7.5 19c-1.38 0-2.5 1.12-2.5 2.5 0 .17.02.34.05.5.23 1.14 1.24 2 2.45 2s2.22-.86 2.45-2c.03-.16.05-.33.05-.5 0-1.38-1.12-2.5-2.5-2.5z" fill="#607d8b"/><path d="m19.5 19c-1.38 0-2.5 1.12-2.5 2.5 0 .17.02.34.05.5.23 1.14 1.24 2 2.45 2s2.22-.86 2.45-2c.03-.16.05-.33.05-.5 0-1.38-1.12-2.5-2.5-2.5z" fill="#607d8b"/><path d="m5 13c-.174 0-.348-.06-.487-.18-.185-.158-4.513-3.905-4.513-7.758 0-2.791 2.243-5.062 5-5.062s5 2.271 5 5.062c0 3.853-4.328 7.6-4.513 7.757-.139.121-.313.181-.487.181z" fill="#2196f3"/><path d="m5 7c-1.103 0-2-.897-2-2s.897-2 2-2 2 .897 2 2-.897 2-2 2z" fill="#fff"/><path d="m5 0c-2.757 0-5 2.271-5 5.062 0 3.853 4.328 7.6 4.513 7.757.139.121.313.181.487.181v-6c-1.103 0-2-.897-2-2s.897-2 2-2z" fill="#1d83d4"/><path d="m5 3c-1.103 0-2 .897-2 2s.897 2 2 2z" fill="#dedede"/><g fill="#546d79"><path d="m7.5 19c-1.378 0-2.5 1.122-2.5 2.5s1.122 2.5 2.5 2.5z"/><path d="m19.5 19c-1.378 0-2.5 1.122-2.5 2.5s1.122 2.5 2.5 2.5z"/></g></svg>